<svg xmlns="http://www.w3.org/2000/svg" xml:space="preserve" width="1500" height="147" data-id="lg_BdR8Jvhp02mMhkTw6R" data-version="1" viewBox="0 0 1500 147"><g data-padding="20"><g transform="translate(10 3.281)scale(.95536)"><rect width="201.727" height="201.727" x="488.921" y="-548.398" fill="#af47e8" rx="13" ry="13" transform="matrix(.73 0 0 .73 193.63 400.2)"/><rect width="274.848" height="82.49" x="293.119" y="-367.945" fill="none" rx="0" ry="0" transform="translate(430.65 400.5)"/><path fill="#76309b" d="M748.463 96.97q-4.68 0-8.8-1.43-4.13-1.42-7.19-3.97-3.07-2.56-4.53-5.99-.73-1.39-.03-2.56.69-1.16 2.3-1.53 1.24-.29 2.4.33 1.17.62 1.76 1.86.95 1.97 2.99 3.54t4.93 2.52q2.88.95 6.17.95 3.64 0 6.6-1.17t4.75-3.39q1.79-2.23 1.79-5.44 0-4.09-3.14-7.23t-10.08-3.94q-8.83-.95-13.87-5.33-5.03-4.38-5.03-10.8 0-4.68 2.55-8 2.56-3.32 7.01-5.07t10.07-1.75q4.24 0 7.56 1.24t5.76 3.39q2.45 2.16 4.2 4.93.88 1.46.7 2.74-.19 1.28-1.35 2.01-1.32.73-2.74.29-1.43-.44-2.16-1.68-1.09-1.97-2.77-3.43t-3.98-2.34q-2.3-.87-5.44-.87-5.54-.08-9.12 2.15t-3.58 6.68q0 2.33 1.21 4.34 1.2 2.01 4.23 3.51 3.03 1.49 8.5 2.15 8.84 1.02 13.51 5.36 4.67 4.35 4.67 11.43 0 4.09-1.57 7.15-1.57 3.07-4.34 5.15-2.78 2.08-6.39 3.14t-7.55 1.06m51.01-.45q-5.69 0-10.25-2.63-4.57-2.63-7.19-7.23-2.63-4.59-2.71-10.29v-33.8q0-1.53.95-2.44.95-.92 2.41-.92 1.54 0 2.45.92.91.91.91 2.44v20.44q2.56-3.21 6.28-5.11t8.32-1.9q5.4 0 9.71 2.67 4.31 2.66 6.82 7.23 2.52 4.56 2.52 10.33 0 5.76-2.66 10.36-2.67 4.6-7.23 7.26-4.56 2.67-10.33 2.67m0-5.99q3.87 0 6.97-1.86 3.11-1.86 4.89-5.11 1.79-3.25 1.79-7.33 0-4.09-1.79-7.3-1.78-3.22-4.89-5.08-3.1-1.86-6.97-1.86t-6.97 1.86-4.85 5.08q-1.76 3.21-1.76 7.3 0 4.08 1.76 7.33 1.75 3.25 4.85 5.11t6.97 1.86m40.97 5.71h-.52q-3.06 0-5.47-1.68t-3.76-4.64q-1.35-2.95-1.35-6.82V42.51q0-1.46.91-2.37.91-.92 2.37-.92 1.54 0 2.45.92.91.91.91 2.37V83.1q0 2.84 1.13 4.67 1.14 1.82 2.81 1.82h1.83q1.39 0 2.19.92.8.91.8 2.44 0 1.46-1.2 2.37-1.21.92-3.1.92m16.06 0q-1.54 0-2.49-.95t-.95-2.41V59.66q0-1.53.95-2.44t2.49-.91q1.46 0 2.4.91.95.91.95 2.44v33.22q0 1.46-.95 2.41-.94.95-2.4.95m-.08-46.87q-1.82 0-3.14-1.31-1.31-1.32-1.31-3.21 0-1.9 1.35-3.18t3.18-1.28q1.75 0 3.1 1.28t1.35 3.18q0 1.89-1.32 3.21-1.31 1.31-3.21 1.31m33.8 46.87h-1.39q-3.72 0-6.71-1.86-2.99-1.87-4.67-5.04-1.68-3.18-1.68-7.26V46.96q0-1.46.91-2.41t2.37-.95 2.41.95.95 2.41v35.12q0 3.28 1.82 5.4 1.83 2.11 4.6 2.11h2.27q1.24 0 2.08.95t.84 2.41-1.06 2.37q-1.06.92-2.74.92m-.8-32.71h-17.59q-1.32 0-2.19-.8-.88-.8-.88-2.04 0-1.32.88-2.12.87-.8 2.19-.8h17.59q1.31 0 2.19.8.87.8.87 2.12 0 1.24-.87 2.04-.88.8-2.19.8m42.69-2.05-25.4 33.14-4.82-3.65 25.77-33.43Zm-1.97 34.75h-25.77q-3.06 0-3.06-3.07 0-3.14 3.06-3.14h25.77q3.07 0 3.07 3.14 0 3.07-3.07 3.07m-.58-33.73h-25.7q-3.14 0-3.14-3.14 0-3.06 3.14-3.06h25.7q3.14 0 3.14 3.06 0 3.14-3.14 3.14"/><rect width="53.22" height="88.14" x="508.841" y="29.358" fill="none" rx="0" ry="0" transform="rotate(-45 588.064 -27.458)"/><path fill="#76309b" d="M639.713 98.61q-3.528 3.53-7.721 5.572t-8.436 2.426q-4.25.388-7.948-1.104-1.598-.495-1.96-1.902-.352-1.4.588-2.892.707-1.16 2.065-1.57 1.35-.417 2.73.085 2.206.764 4.935.41 2.737-.36 5.629-1.824t5.374-3.946q2.757-2.757 4.115-5.869 1.35-3.118 1.018-6.15t-2.757-5.46q-3.09-3.09-7.835-3.083-4.745-.007-10.593 4.624-7.39 5.961-14.502 6.456t-11.965-4.356q-3.535-3.535-4.108-7.969-.58-4.44 1.457-9.136 2.036-4.68 6.286-8.93 3.196-3.196 6.647-4.766 3.443-1.577 6.922-1.79 3.48-.225 6.895.545 1.767.44 2.595 1.55.827 1.095.495 2.53-.446 1.55-1.853 2.291-1.407.743-2.892.36-2.32-.664-4.688-.5-2.376.17-4.766 1.243-2.404 1.075-4.773 3.444-4.25 4.137-5.268 8.52-1.025 4.392 2.34 7.758 1.76 1.76 4.194 2.368 2.425.601 5.84-.55 3.423-1.16 8.054-4.802 7.453-5.898 14.263-6.145 6.81-.248 12.155 5.098 3.09 3.09 4.228 6.59 1.125 3.5.608 7.17-.53 3.67-2.46 7.2t-4.908 6.504"/><rect width="53.22" height="88.14" x="508.841" y="29.358" fill="none" rx="0" ry="0" transform="rotate(-45 585.893 -32.724)"/><path fill="#fff" d="M642.802 95.533q-3.53 3.53-7.722 5.572t-8.436 2.426q-4.25.39-7.948-1.103-1.598-.495-1.958-1.902-.354-1.4.586-2.893.708-1.16 2.065-1.57 1.35-.417 2.73.086 2.206.763 4.935.41 2.737-.36 5.629-1.825t5.374-3.945q2.758-2.758 4.115-5.87 1.35-3.118 1.018-6.15t-2.757-5.46q-3.09-3.09-7.835-3.083-4.745-.007-10.593 4.624-7.39 5.961-14.502 6.456t-11.965-4.355q-3.535-3.536-4.108-7.97-.58-4.44 1.457-9.135 2.036-4.68 6.286-8.93 3.196-3.197 6.647-4.767 3.443-1.577 6.922-1.789 3.48-.226 6.895.545 1.767.438 2.595 1.548.827 1.096.495 2.532-.446 1.548-1.853 2.29-1.407.743-2.892.361-2.32-.665-4.688-.502-2.376.17-4.766 1.245-2.404 1.074-4.773 3.443-4.25 4.137-5.268 8.52-1.025 4.392 2.34 7.758 1.76 1.76 4.194 2.37 2.425.6 5.84-.553 3.423-1.16 8.054-4.8 7.453-5.898 14.263-6.146t12.155 5.098q3.09 3.09 4.228 6.59 1.125 3.5.609 7.17-.53 3.67-2.461 7.2t-4.907 6.504"/></g><path fill="transparent" stroke="transparent" d="M526 0h448v147H526z"/></g></svg>